<svg xmlns="http://www.w3.org/2000/svg" viewBox="0 0 78 104">
    <defs>
        <linearGradient id="a" x1="0%" x2="102%" y1="0%" y2="101%">
            <stop offset="0%" stop-color="#3023AE"/>
            <stop offset="100%" stop-color="#C86DD7"/>
        </linearGradient>
    </defs>
    <path fill="url(#a)" fill-rule="nonzero" d="M6.231 102.099h9.903c1.335 0 2.448-.447 3.45-1.118 2.114 1.9 4.784 3.019 7.788 3.019h31.49c7.677 0 12.684-4.25 13.575-11.295l4.228-26.727V65.084c0-6.486-5.23-11.742-11.684-11.742H50.516V43.277c0-5.367-1.557-9.281-4.784-11.63-4.896-3.578-11.238-1.789-12.017-1.565-1.336.447-2.226 1.677-2.226 3.13v12.973c0 8.723-9.903 11.966-11.127 12.413a6.127 6.127 0 0 0-4.34-1.79H6.12C2.782 56.809 0 59.605 0 62.96v32.878c.111 3.466 2.893 6.262 6.231 6.262zm16.023-37.127c1.78-.56 15.8-5.256 15.8-18.675V36.12c1.335-.111 2.893.112 4.006.895 1.446 1.007 2.114 3.131 2.114 6.262v13.42a3.237 3.237 0 0 0 3.227 3.243h17.692c2.893 0 5.23 2.348 5.23 5.256v.112L66.093 91.81v.112c-.222 1.565-.667 5.591-7.121 5.591h-31.49c-2.892 0-5.23-2.348-5.23-5.256V64.972zm-15.69-1.566h9.125v32.207H6.565V63.406zm45.733-37.574c-1.224-1.23-1.224-3.355 0-4.585L62.31 11.183c1.224-1.23 3.338-1.23 4.562 0 1.224 1.23 1.224 3.355 0 4.585L56.859 25.832c-.668.671-1.447 1.007-2.337 1.007-.779 0-1.558-.336-2.225-1.007zm8.345 9.17h14.131A3.237 3.237 0 0 1 78 38.245a3.237 3.237 0 0 1-3.227 3.243H60.642a3.237 3.237 0 0 1-3.227-3.243 3.237 3.237 0 0 1 3.227-3.243zM36.719 17.445V3.243A3.237 3.237 0 0 1 39.946 0a3.237 3.237 0 0 1 3.227 3.243v14.202a3.237 3.237 0 0 1-3.227 3.243 3.237 3.237 0 0 1-3.227-3.243zm-23.7-1.677c-1.224-1.23-1.224-3.355 0-4.585s3.338-1.23 4.562 0l10.014 10.064c1.224 1.23 1.224 3.355 0 4.585-.668.671-1.447 1.007-2.337 1.007-.779 0-1.669-.336-2.336-1.007l-9.903-10.064zM1.892 38.245a3.237 3.237 0 0 1 3.226-3.243H19.25a3.237 3.237 0 0 1 3.226 3.243 3.237 3.237 0 0 1-3.226 3.243H5.23c-1.892 0-3.338-1.454-3.338-3.243z"/>
</svg>
