<svg xmlns="http://www.w3.org/2000/svg" viewBox="0 0 76 128">
    <defs>
        <linearGradient id="a" x1="0%" x2="102%" y1="0%" y2="101%">
            <stop offset="0%" stop-color="#3023AE"/>
            <stop offset="100%" stop-color="#C86DD7"/>
        </linearGradient>
    </defs>
    <path fill="url(#a)" fill-rule="evenodd" d="M33.248 31h11.555a4 4 0 0 1 3.995 4.192l-2.692 56A4 4 0 0 1 42.111 95h-5.498a4 4 0 0 1-3.993-3.76l-3.365-56A4 4 0 0 1 33.248 31zm16.67-5.428c-1.224-1.23-1.224-3.355 0-4.585l10.014-10.064c1.224-1.23 3.338-1.23 4.562 0 1.224 1.23 1.224 3.354 0 4.585L54.48 25.572c-.668.671-1.446 1.006-2.337 1.006-.779 0-1.557-.335-2.225-1.006zM58.227 35h14.131a3.237 3.237 0 0 1 3.227 3.243 3.237 3.237 0 0 1-3.227 3.243H58.227A3.237 3.237 0 0 1 55 38.243 3.237 3.237 0 0 1 58.227 35zM35 17.445V3.243A3.237 3.237 0 0 1 38.227 0a3.237 3.237 0 0 1 3.227 3.243v14.202a3.237 3.237 0 0 1-3.227 3.243A3.237 3.237 0 0 1 35 17.445zm-24.082-1.937c-1.224-1.23-1.224-3.355 0-4.585s3.338-1.23 4.562 0l10.014 10.064c1.224 1.23 1.224 3.355 0 4.585-.667.671-1.446 1.006-2.336 1.006-.78 0-1.67-.335-2.337-1.006l-9.903-10.064zM0 38.243A3.237 3.237 0 0 1 3.227 35h14.131a3.237 3.237 0 0 1 3.227 3.243 3.237 3.237 0 0 1-3.227 3.243H3.338C1.447 41.486 0 40.032 0 38.243zM39 128c-6.627 0-12-5.373-12-12s5.373-12 12-12 12 5.373 12 12-5.373 12-12 12z"/>
</svg>
